# xmcd
#
# Track frame offsets:
#	150
#	21896
#	37322
#	65977
#	89479
#	104874
#	137177
#	150556
#	170555
#	199834
#	223945
#	239955
#	261247
#
# Disc length: 3848 seconds
#
# Revision: 1
# Processed by: cddbd v1.5.2PL0 Copyright (c) Steve Scherf et al.
# Submitted via: audiograbber 1.83.01
#
DISCID=db0f060d
DTITLE=Wabi Down Home Blues Project Band - The Best Things in Life Are Still Ma
DTITLE=de By Hand
DYEAR=2001
DGENRE=Blues
TTITLE0=Oh Baby
TTITLE1=Boogie 2000
TTITLE2=That's All Right
TTITLE3=Pretty Baby
TTITLE4=King of Golden Cue
TTITLE5=I Can't Hold on too Long
TTITLE6=I'll go crazy
TTITLE7=Act like you love me
TTITLE8=Last night
TTITLE9=Baby, I'm home
TTITLE10=Can't hold out much longer
TTITLE11=Don't I know
TTITLE12=That's all right/take two
EXTD=
EXTT0=
EXTT1=
EXTT2=
EXTT3=
EXTT4=
EXTT5=
EXTT6=
EXTT7=
EXTT8=
EXTT9=
EXTT10=
EXTT11=
EXTT12=
PLAYORDER=
